<?xml version="1.0" standalone="no"?>
<!DOCTYPE svg PUBLIC "-//W3C//DTD SVG 20010904//EN"
 "http://www.w3.org/TR/2001/REC-SVG-20010904/DTD/svg10.dtd">
<svg version="1.0" xmlns="http://www.w3.org/2000/svg"
 width="250.000000pt" height="243.000000pt" viewBox="0 0 250.000000 243.000000"
 preserveAspectRatio="xMidYMid meet">

<g transform="translate(0.000000,243.000000) scale(0.100000,-0.100000)"
fill="#000000" stroke="none">
<path d="M1240 2280 c0 -13 11 -13 30 0 12 8 11 10 -7 10 -13 0 -23 -4 -23
-10z"/>
<path d="M1401 2171 c-31 -16 -39 -17 -79 -5 -52 16 -120 18 -155 5 -28 -11
-94 -66 -106 -90 -8 -14 -2 -15 57 -10 37 4 82 11 100 17 18 6 30 7 27 1 -4
-5 1 -9 10 -9 9 0 13 5 10 10 -3 6 3 10 14 10 30 0 72 -18 111 -48 19 -15 37
-27 40 -27 32 -2 121 -108 113 -132 -3 -7 2 -13 10 -13 22 0 20 87 -3 157 -11
32 -20 69 -20 82 0 24 0 24 23 5 12 -10 4 1 -18 24 -44 48 -77 53 -134 23z"/>
<path d="M871 2111 c-15 -10 -8 -41 9 -41 15 0 25 29 14 40 -5 5 -15 5 -23 1z"/>
<path d="M1200 2067 c11 -11 110 -45 110 -37 0 4 -12 12 -27 18 -35 13 -90 25
-83 19z"/>
<path d="M802 2023 c-15 -6 -42 -56 -42 -77 0 -8 12 -28 26 -45 62 -74 175 1
130 87 -8 16 -23 32 -31 36 -19 7 -64 7 -83 -1z m73 -23 c3 -5 -1 -10 -9 -10
-8 0 -18 5 -21 10 -3 6 1 10 9 10 8 0 18 -4 21 -10z m-60 -19 c-3 -6 -11 -11
-17 -11 -6 0 -6 6 2 15 14 17 26 13 15 -4z m53 -28 c5 -17 -26 -29 -40 -15 -6
6 -7 15 -3 22 9 14 37 9 43 -7z m32 -9 c0 -8 -5 -12 -10 -9 -6 4 -8 11 -5 16
9 14 15 11 15 -7z m-84 -31 c-7 -7 -26 7 -26 19 0 6 6 6 15 -2 9 -7 13 -15 11
-17z m54 -13 c0 -5 -7 -10 -16 -10 -8 0 -12 5 -9 10 3 6 10 10 16 10 5 0 9 -4
9 -10z"/>
<path d="M1621 2020 c-1 -3 4 -21 9 -40 13 -47 2 -160 -15 -153 -14 5 -32 -34
-21 -44 3 -4 6 2 6 12 0 10 3 15 7 11 11 -10 12 -36 2 -36 -12 0 -27 -31 -34
-71 -3 -18 -9 -36 -13 -39 -4 -3 -8 -13 -10 -24 -2 -10 -16 -52 -32 -92 -30
-79 -27 -92 6 -25 10 23 24 41 30 41 6 0 16 11 22 25 12 27 28 33 34 13 2 -6
13 17 24 53 25 85 27 286 2 339 -9 19 -17 33 -17 30z"/>
<path d="M821 1816 c-9 -10 -8 -16 3 -25 10 -9 16 -8 25 3 9 10 8 16 -3 25
-10 9 -16 8 -25 -3z"/>
<path d="M1200 984 c0 -13 21 -44 30 -44 17 0 11 25 -10 38 -11 7 -20 10 -20
6z"/>
<path d="M1275 960 c3 -5 8 -10 11 -10 2 0 4 5 4 10 0 6 -5 10 -11 10 -5 0 -7
-4 -4 -10z"/>
<path d="M1314 949 c-3 -6 -1 -16 5 -22 8 -8 11 -8 11 1 0 7 7 12 16 12 8 0
12 5 9 10 -8 13 -32 13 -41 -1z"/>
<path d="M1263 938 c4 -13 1 -18 -10 -18 -12 0 -6 -12 22 -41 32 -33 35 -39
15 -29 l-25 13 19 -22 c18 -20 48 -29 44 -13 0 4 2 15 7 25 6 15 10 16 16 5 7
-10 9 -10 9 3 0 8 -7 24 -15 35 -15 19 -15 19 -9 -1 l6 -20 -19 20 c-10 11
-29 29 -43 40 -20 17 -23 18 -17 3z"/>
<path d="M1026 852 c-14 -42 -26 -86 -26 -96 0 -18 1 -18 20 -1 11 10 28 15
39 12 14 -3 25 3 36 20 16 23 15 28 -5 79 -13 30 -26 56 -30 59 -4 2 -19 -30
-34 -73z"/>
<path d="M1355 920 c-3 -5 -1 -10 4 -10 6 0 11 5 11 10 0 6 -2 10 -4 10 -3 0
-8 -4 -11 -10z"/>
<path d="M1232 867 c-7 -8 -7 -18 -2 -27 8 -13 10 -12 10 2 0 9 5 18 12 20 8
3 9 6 1 11 -6 4 -15 1 -21 -6z"/>
<path d="M1377 864 c-13 -13 -7 -25 37 -72 24 -26 46 -54 49 -62 3 -9 6 -3 6
13 1 19 -9 37 -30 56 -18 17 -29 36 -27 47 3 18 -22 31 -35 18z"/>
<path d="M1255 830 c-3 -5 -1 -10 4 -10 6 0 11 5 11 10 0 6 -2 10 -4 10 -3 0
-8 -4 -11 -10z"/>
<path d="M1390 770 c13 -25 33 -56 46 -68 l23 -24 -9 33 c-6 19 -26 49 -46 69
l-36 35 22 -45z"/>
<path d="M1317 787 c-3 -8 -1 -20 4 -28 6 -10 9 -10 9 -1 0 26 22 10 37 -27
14 -35 39 -59 50 -48 2 2 -11 30 -29 61 -31 54 -60 72 -71 43z"/>
<path d="M1120 760 c0 -8 5 -22 10 -30 9 -13 10 -13 10 0 0 8 -5 22 -10 30 -9
13 -10 13 -10 0z"/>
<path d="M1233 716 c3 -8 2 -16 -4 -18 -6 -2 -4 -15 3 -31 13 -28 15 -29 69
-23 57 6 81 -3 92 -34 4 -12 6 -12 6 2 1 26 -38 48 -85 48 -44 0 -70 19 -60
45 7 19 32 19 40 0 3 -8 1 -15 -5 -15 -6 0 -7 -5 -3 -11 11 -18 27 7 19 30 -5
16 -15 21 -42 21 -26 0 -34 -4 -30 -14z"/>
<path d="M1322 700 c0 -14 2 -19 5 -12 2 6 2 18 0 25 -3 6 -5 1 -5 -13z"/>
<path d="M1480 694 c0 -35 23 -73 34 -56 4 6 -2 28 -13 49 l-20 38 -1 -31z"/>
<path d="M1426 648 c10 -35 25 -49 44 -43 30 10 32 -32 3 -61 -14 -14 -22 -28
-18 -32 4 -4 15 3 24 14 16 20 18 20 29 5 10 -14 11 -14 11 5 1 31 -35 99 -63
118 -33 21 -39 20 -30 -6z"/>
<path d="M1295 617 c-24 -18 -11 -41 15 -27 10 5 30 10 44 10 29 0 35 14 10
24 -25 10 -49 7 -69 -7z"/>
<path d="M1526 575 c4 -8 10 -15 15 -15 5 0 9 7 9 15 0 8 -7 15 -15 15 -9 0
-12 -6 -9 -15z"/>
<path d="M1418 563 c-25 -30 -30 -43 -16 -42 19 0 64 59 45 59 -8 0 -21 -8
-29 -17z"/>
<path d="M1540 522 c0 -11 -3 -29 -7 -39 -6 -17 -6 -17 9 -2 16 16 19 42 5 55
-4 4 -7 -2 -7 -14z"/>
<path d="M1486 503 c-4 -10 -2 -14 8 -10 8 3 17 1 20 -6 2 -7 5 -5 5 4 1 22
-26 32 -33 12z"/>
<path d="M1362 413 c-1 -6 -7 -24 -12 -38 -9 -23 -13 -25 -26 -15 -12 11 -17
11 -27 1 -9 -10 -9 -12 3 -9 11 2 15 -5 15 -25 0 -25 17 -46 37 -47 4 0 15 14
23 31 13 25 19 28 31 18 12 -10 13 -9 8 5 -4 11 -14 16 -25 13 -15 -4 -19 2
-22 37 -2 22 -4 36 -5 29z"/>
<path d="M1191 327 c-16 -16 -14 -42 4 -57 8 -7 15 -24 15 -37 0 -19 -8 -28
-40 -40 -22 -9 -40 -19 -40 -23 0 -4 23 -12 51 -18 48 -11 53 -11 66 7 7 11
26 21 41 23 18 2 31 12 40 31 7 15 20 27 28 27 15 0 19 12 7 23 -3 4 -15 -1
-25 -10 -21 -19 -48 -26 -48 -13 0 5 5 12 10 15 16 10 12 35 -6 35 -10 0 -14
-6 -11 -14 3 -8 -3 -22 -14 -32 -10 -9 -19 -27 -19 -39 0 -13 -7 -29 -17 -36
-15 -13 -15 -12 -5 7 6 12 8 24 5 28 -4 3 -8 14 -9 24 -1 9 -5 24 -8 33 -5 11
-1 18 13 22 35 9 23 47 -16 53 -6 1 -16 -3 -22 -9z m40 -20 c-1 -4 -4 -7 -7
-6 -4 0 -11 -5 -15 -13 -7 -10 -9 -10 -9 3 0 9 3 19 7 23 8 8 25 3 24 -7z"/>
<path d="M1163 252 c10 -10 17 -25 17 -32 0 -10 3 -11 11 -3 14 14 -6 53 -28
53 -15 0 -15 -2 0 -18z"/>
<path d="M1397 229 c-18 -11 -24 -39 -7 -39 6 0 10 7 10 15 0 8 5 15 10 15 6
0 10 -6 10 -14 0 -16 -23 -29 -60 -33 -93 -10 -110 -16 -110 -34 0 -15 90 -10
135 7 28 10 44 24 52 44 15 40 -3 59 -40 39z m-34 -76 c-7 -2 -19 -2 -25 0 -7
3 -2 5 12 5 14 0 19 -2 13 -5z"/>
</g>
</svg>
